<?xml version="1.0" encoding="UTF-8"?>
<svg version="1.1" xmlns="http://www.w3.org/2000/svg" width="4236" height="4395">
<path d="M0 0 C1.9794877 0.13027646 3.95898007 0.26048206 5.93847656 0.390625 C110.55272408 7.3765445 214.31239401 25.40907495 538 134 C538.64801575 134.28812561 539.29603149 134.57625122 539.96368408 134.87310791 C560.88153088 144.18488243 581.561753 153.95029481 602.10229492 164.0657959 C603.93924601 164.97009196 605.77712899 165.87246705 607.61523438 166.77441406 C621.59188873 173.64449543 635.3787562 180.78307368 648.99609375 188.33984375 C651.70431954 189.83658752 654.41873086 191.3214215 657.13645935 192.80082703 C672.6483612 201.244959 687.93310631 209.97705502 703.01220703 219.1796875 C705.99056516 220.99425182 708.97656405 222.79558005 711.96484375 224.59375 C724.48239784 232.1412822 736.80644407 239.94042119 749 248 C749.83708496 248.55123535 750.67416992 249.1024707 751.53662109 249.67041016 C779.07189666 267.81616199 805.85162728 286.91374477 832 307 C833.24199271 307.95077534 834.48415751 308.90132596 835.7265625 309.8515625 C838.82553467 312.22430626 841.91465443 314.60955208 845 317 C845.55703613 317.43086914 846.11407227 317.86173828 846.68798828 318.30566406 C854.25010882 324.16414898 861.64764894 330.17477117 868.921875 336.38671875 C871.7270732 338.77882269 874.57463157 341.11455851 877.4375 343.4375 C886.76748613 351.04021464 895.86891173 358.90843613 904.78125 366.99609375 C906.79308393 368.81311982 908.82660434 370.59944392 910.875 372.375 C915.27352384 376.2082517 919.56431366 380.1570836 923.85546875 384.109375 C925.91250699 386.00386451 927.97736732 387.88907528 930.05078125 389.765625 C935.95287347 395.11797513 941.67029898 400.59282223 947.234375 406.296875 C949.35466057 408.36924451 951.48662305 410.30815454 953.73046875 412.23828125 C958.55837794 416.42307522 963.05720526 420.91063163 967.5625 425.4375 C968.77969727 426.64889648 968.77969727 426.64889648 970.02148438 427.88476562 C974.30675133 432.17694987 978.4126589 436.55092986 982.36694336 441.14868164 C984.94370619 444.06983466 987.71542322 446.77882356 990.5 449.5 C994.51641706 453.47160111 998.40413865 457.46962325 1002.0625 461.77734375 C1004.80194898 464.91997776 1007.65450369 467.95350437 1010.5 471 C1015.09105567 475.92602816 1019.62172382 480.88277426 1024 486 C1024.88791299 487.03394678 1025.77594505 488.06779133 1026.6640625 489.1015625 C1028.71901882 491.49495036 1030.77050196 493.89126678 1032.8203125 496.2890625 C1034.88970698 498.7082138 1036.96777307 501.11938733 1039.0546875 503.5234375 C1044.5413373 509.85685284 1049.86216912 516.27772594 1055.00073242 522.8972168 C1057.88296917 526.60398561 1060.84197074 530.2266767 1063.875 533.8125 C1069.59661705 540.62782268 1074.95460814 547.70678384 1080.32666016 554.79882812 C1081.96276917 556.95102522 1083.6099023 559.09421702 1085.26171875 561.234375 C1093.05521901 571.33984518 1100.60362667 581.60063749 1108 592 C1108.53141602 592.74491699 1109.06283203 593.48983398 1109.61035156 594.25732422 C1125.09743843 616.00942901 1140.00538014 638.25713143 1154 661 C1154.93610107 662.517146 1154.93610107 662.517146 1155.89111328 664.06494141 C1187.29980702 715.07134355 1215.62438024 768.01705372 1239.30224609 823.06640625 C1240.87103664 826.7114817 1242.47328457 830.34111234 1244.08203125 833.96875 C1284.13927017 924.89854941 1311.01384389 1021.90618076 1346.25 1251.6875 C1346.32713226 1252.57845367 1346.40426453 1253.46940735 1346.48373413 1254.38735962 C1347.07000805 1261.25325729 1347.55852621 1268.1233349 1348 1275 C1348.04259823 1275.65999622 1348.08519646 1276.31999245 1348.12908554 1276.99998856 C1349.93456249 1305.24818947 1350.36625574 1333.44391835 1350.31805801 1361.74478149 C1350.3124074 1365.11777799 1350.30959328 1368.49076944 1350.30697632 1371.86376953 C1350.26924376 1405.33909666 1349.76214534 1438.62287203 1347 1472 C1346.82107455 1474.23305574 1346.64237007 1476.46612919 1346.46386719 1478.69921875 C1343.90899914 1510.24612112 1340.41977569 1541.66095321 1336 1573 C1335.80854401 1574.3636972 1335.80854401 1574.3636972 1335.61322021 1575.75494385 C1323.85707447 1659.13211506 1304.73937076 1741.5455281 1280 1822 C1279.73658813 1822.85728699 1279.47317627 1823.71457397 1279.20178223 1824.59783936 C1257.78241333 1894.18528511 1232.66869181 1962.4906898 1203 2029 C1202.52200958 2030.07299347 1202.52200958 2030.07299347 1202.03436279 2031.16766357 C1183.53126767 2072.65998269 1163.89171056 2113.95660044 1141.2265625 2153.35546875 C1138.92659758 2157.35531555 1136.67910866 2161.37999592 1134.4609375 2165.42578125 C1126.03812944 2180.78784729 1117.22013575 2195.83339145 1108.01416016 2210.73486328 C1106.19068138 2213.69088814 1104.38074991 2216.6546965 1102.57421875 2219.62109375 C1094.30817994 2233.10519716 1085.57854805 2246.27542532 1076.8125 2259.4375 C1076.21907806 2260.32947083 1075.62565613 2261.22144165 1075.01425171 2262.14044189 C1067.18884089 2273.89120571 1059.20339974 2285.5100757 1051 2297 C1050.37391846 2297.88163818 1049.74783691 2298.76327637 1049.1027832 2299.67163086 C1041.56690648 2310.26773808 1033.75797866 2320.64229792 1025.84765625 2330.9609375 C1022.9717971 2334.71551169 1020.13558542 2338.49642532 1017.32177734 2342.29760742 C1011.01323001 2350.8108462 1004.34460099 2358.98972383 997.55859375 2367.12548828 C995.45795261 2369.65191727 993.38481437 2372.20031321 991.3125 2374.75 C986.76039101 2380.31835472 982.12190934 2385.811024 977.45898438 2391.28662109 C976.47249956 2392.44511347 975.48684435 2393.6043127 974.50195312 2394.76416016 C968.5210438 2401.80539156 962.46762554 2408.75340512 956.22265625 2415.5625 C954.32578236 2417.64272725 952.46607057 2419.74556898 950.625 2421.875 C946.64565264 2426.44800291 942.52762062 2430.8915887 938.40136719 2435.33154297 C936.31419921 2437.57909218 934.23512603 2439.83346204 932.16577148 2442.09741211 C921.72344975 2453.46559091 910.79981974 2464.35384726 899.87548828 2475.25488281 C897.14916462 2477.9754595 894.42742705 2480.7005735 891.70694923 2483.42699432 C889.57934081 2485.55823648 887.44933184 2487.68706674 885.31861496 2489.81520081 C884.31411094 2490.81904595 883.31032626 2491.82361152 882.30733109 2492.82896423 C877.23063483 2497.91499628 872.12061671 2502.89058199 866.66537476 2507.57043457 C864.64782232 2509.30231096 862.70774836 2511.10522164 860.78125 2512.9375 C860.07613281 2513.60523437 859.37101562 2514.27296875 858.64453125 2514.9609375 C857.93683594 2515.63382813 857.22914063 2516.30671875 856.5 2517 C851.1052328 2522.12945078 845.64241348 2527.14364516 840 2532 C839.43974121 2532.48243164 838.87948242 2532.96486328 838.30224609 2533.46191406 C836.68285648 2534.85219546 835.06069474 2536.23916375 833.4375 2537.625 C829.69291792 2540.82366679 825.95679789 2544.03043042 822.25390625 2547.27734375 C815.68194154 2553.03390911 809.04091909 2558.62707185 802.13110352 2563.97460938 C798.14229183 2567.07057167 794.27010191 2570.27568365 790.4375 2573.5625 C784.76855975 2578.40765381 778.92843949 2582.99567596 772.98193359 2587.49511719 C770.69632853 2589.23057784 768.4203234 2590.97825436 766.14453125 2592.7265625 C754.90212891 2601.35054207 743.55247943 2609.79618773 732 2618 C731.4354007 2618.40310394 730.87080139 2618.80620789 730.28909302 2619.2215271 C718.48745457 2627.64470272 706.50882568 2635.78154178 694.4375 2643.8125 C693.51690796 2644.42562042 692.59631592 2645.03874084 691.64782715 2645.67044067 C677.58263902 2655.03163864 663.47097442 2664.27425867 649 2673 C647.64334229 2673.81863525 647.64334229 2673.81863525 646.25927734 2674.65380859 C571.03274221 2719.87432813 491.83139316 2757.4671739 36.11798096 2859.89285278 C34.64929666 2859.96715252 33.18083702 2860.04597778 31.71258545 2860.12838745 C12.1189621 2861.21902772 -7.48385908 2861.18748642 -27.10107422 2861.18530273 C-30.91818045 2861.18522218 -34.73516485 2861.19206583 -38.55224609 2861.20581055 C-73.9248588 2861.33096898 -109.17731037 2860.17333614 -144.4375 2857.25 C-145.44953491 2857.16763092 -146.46156982 2857.08526184 -147.50427246 2857.00039673 C-251.00286748 2848.50470321 -353.38377845 2828.33081934 -762.29296875 2671.51171875 C-765.31200652 2669.82576259 -768.34278275 2668.16213098 -771.375 2666.5 C-804.39221021 2648.35749446 -836.57807026 2628.7784199 -868 2608 C-869.50506104 2607.0095166 -869.50506104 2607.0095166 -871.04052734 2605.99902344 C-883.51701895 2597.78630053 -895.82004841 2589.40422708 -907.85986328 2580.56347656 C-910.02096802 2578.98468182 -912.19367232 2577.42338774 -914.37109375 2575.8671875 C-935.88462845 2560.4803849 -956.71609314 2544.20301286 -977.19580078 2527.47216797 C-978.78273046 2526.17728489 -980.37348737 2524.88709522 -981.96484375 2523.59765625 C-988.81473779 2518.03526065 -995.51405482 2512.30854505 -1002.19726562 2506.54833984 C-1003.97485913 2505.02159309 -1005.75952015 2503.50358292 -1007.546875 2501.98828125 C-1013.95463465 2496.54741231 -1020.25081731 2491.01823787 -1026.38696289 2485.27148438 C-1029.18021185 2482.65837072 -1032.01167074 2480.10353981 -1034.8984375 2477.59375 C-1038.92908069 2474.0831125 -1042.85449751 2470.47202866 -1046.75 2466.8125 C-1047.44029297 2466.16539062 -1048.13058594 2465.51828125 -1048.84179688 2464.8515625 C-1053.65008546 2460.32349795 -1058.34378386 2455.69725319 -1062.98339844 2450.99731445 C-1065.57217496 2448.38677231 -1068.20234991 2445.88488204 -1071 2443.5 C-1077.8917338 2437.61540893 -1084.45375489 2431.10323521 -1090.3125 2424.1875 C-1093.81449473 2420.06292843 -1097.65886107 2416.30454342 -1101.5 2412.5 C-1105.84609943 2408.19104225 -1110.11583322 2403.89787027 -1114.06640625 2399.21875 C-1116.95895291 2395.89962575 -1119.98684851 2392.70948353 -1123 2389.5 C-1127.76556834 2384.41306017 -1132.47502262 2379.30346812 -1137 2374 C-1137.88646428 2372.96722944 -1138.77321035 2371.93470072 -1139.66015625 2370.90234375 C-1141.71650221 2368.50772736 -1143.76933468 2366.11015261 -1145.8203125 2363.7109375 C-1147.88970698 2361.2917862 -1149.96777307 2358.88061267 -1152.0546875 2356.4765625 C-1157.51958644 2350.16811826 -1162.81523726 2343.77263451 -1167.92822266 2337.17529297 C-1170.99607761 2333.23122254 -1174.17605079 2329.40981973 -1177.4375 2325.625 C-1181.96422694 2320.35025315 -1186.16898414 2314.88334512 -1190.30395508 2309.29785156 C-1194.16233391 2304.09055821 -1198.12468765 2298.97382971 -1202.125 2293.875 C-1207.06978708 2287.55331083 -1211.84948159 2281.15108513 -1216.46484375 2274.5859375 C-1218.26292252 2272.0286383 -1220.09201054 2269.49699904 -1221.94140625 2266.9765625 C-1230.35897879 2255.48757183 -1238.28589257 2243.70606913 -1246.13232422 2231.82128906 C-1247.80912939 2229.28832689 -1249.49636279 2226.7629662 -1251.19140625 2224.2421875 C-1263.34390762 2206.16616525 -1274.92958528 2187.7574252 -1286 2169 C-1286.53560547 2168.09620605 -1287.07121094 2167.19241211 -1287.62304688 2166.26123047 C-1322.1721859 2107.89656766 -1352.13779679 2047.10380047 -1377 1984 C-1377.45793945 1982.83855469 -1377.91587891 1981.67710938 -1378.38769531 1980.48046875 C-1397.69667947 1931.18692786 -1413.52746968 1880.81370707 -1426.38079834 1829.4710083 C-1426.9793148 1827.08254712 -1427.58231907 1824.69525683 -1428.18603516 1822.30810547 C-1448.92723237 1739.98030025 -1460.22865194 1654.77604722 -1464 1570 C-1464.06405029 1568.62899139 -1464.06405029 1568.62899139 -1464.12939453 1567.23028564 C-1465.04715528 1547.11535364 -1465.15687993 1527.02347777 -1465.13037109 1506.89208984 C-1465.12457619 1502.44532584 -1465.12803338 1497.99862093 -1465.13394356 1493.5518589 C-1465.13755431 1490.08429516 -1465.13640988 1486.61674553 -1465.13381577 1483.14918137 C-1465.13315296 1481.50739917 -1465.13395208 1479.86561565 -1465.13629532 1478.22383499 C-1465.13884108 1475.9481792 -1465.13495862 1473.67262116 -1465.12939453 1471.39697266 C-1465.12859894 1470.10908844 -1465.12780334 1468.82120422 -1465.12698364 1467.49429321 C-1465.00860602 1464.23681767 -1464.61954724 1461.19613196 -1464 1458 C-1457.29758924 1458.61873909 -1451.26264359 1460.76333717 -1444.921875 1462.9453125 C-1443.74046432 1463.34657852 -1442.55905365 1463.74784454 -1441.34184265 1464.16127014 C-1438.14232626 1465.24963039 -1434.94482782 1466.34356719 -1431.74818039 1467.4403038 C-1429.05517841 1468.36308747 -1426.36055494 1469.28108466 -1423.66592693 1470.19910717 C-1407.41548053 1475.73605786 -1391.1932161 1481.35122114 -1374.99719238 1487.04547119 C-1355.24493221 1493.98421445 -1335.39729971 1500.64008517 -1315.55737686 1507.32274628 C-1291.60440929 1515.39113248 -1267.68665995 1523.54359825 -1243.85211182 1531.9569397 C-1238.62702481 1533.79615962 -1233.37570289 1535.54632021 -1228.10302734 1537.24487305 C-1226 1538 -1226 1538 -1225 1539 C-1224.83900145 1540.53935521 -1224.74352154 1542.0856214 -1224.67456055 1543.63183594 C-1224.62730835 1544.6294545 -1224.58005615 1545.62707306 -1224.53137207 1546.65492249 C-1224.48363647 1547.75364182 -1224.43590088 1548.85236115 -1224.38671875 1549.984375 C-1224.27479638 1552.34531825 -1224.16238902 1554.70623855 -1224.04956055 1557.06713867 C-1223.99101898 1558.3190097 -1223.93247742 1559.57088074 -1223.87216187 1560.86068726 C-1219.14824015 1660.35501916 -1203.06517563 1757.43349992 -1152 1907 C-1151.54351074 1908.12696289 -1151.08702148 1909.25392578 -1150.61669922 1910.41503906 C-1147.5225796 1917.99298132 -1144.2985047 1925.50897319 -1141 1933 C-1140.60355286 1933.90247467 -1140.60355286 1933.90247467 -1140.19909668 1934.82318115 C-1126.79999475 1965.29622337 -1112.44310137 1995.48635711 -1095.61425781 2024.22900391 C-1093.85483806 2027.2491815 -1092.12497385 2030.28512968 -1090.3984375 2033.32421875 C-1065.73578678 2076.63408278 -1037.4896666 2117.60600968 -1007 2157 C-1006.53529297 2157.60118652 -1006.07058594 2158.20237305 -1005.59179688 2158.82177734 C-992.0370165 2176.32109632 -977.87995225 2193.38832632 -963.00390625 2209.78125 C-961.18688018 2211.79308393 -959.40055608 2213.82660434 -957.625 2215.875 C-953.84504302 2220.21108859 -949.95802312 2224.44696322 -946.05810547 2228.67480469 C-944.19067132 2230.70147411 -942.33373486 2232.73596274 -940.48413086 2234.77905273 C-932.02734117 2244.0681698 -923.19156919 2252.9611196 -914.29882812 2261.83154297 C-911.73711354 2264.3878593 -909.18083894 2266.94952929 -906.625 2269.51171875 C-904.97427914 2271.16177933 -903.3232484 2272.81152998 -901.671875 2274.4609375 C-900.54347198 2275.59237686 -900.54347198 2275.59237686 -899.39227295 2276.74667358 C-895.32071632 2280.80044081 -891.16668921 2284.6943595 -886.80409241 2288.434021 C-883.67485387 2291.15024652 -880.69435047 2294.02497302 -877.6875 2296.875 C-872.49241316 2301.7652533 -867.18647242 2306.40429718 -861.609375 2310.859375 C-858.81568484 2313.15120465 -856.15791222 2315.55231812 -853.5 2318 C-848.17025607 2322.89374231 -842.63229749 2327.46107316 -837 2332 C-835.78172437 2332.99768805 -834.56432693 2333.99644911 -833.34765625 2334.99609375 C-824.48501162 2342.26505603 -815.47189919 2349.30408625 -806.33496094 2356.22412109 C-803.82210694 2358.13529842 -801.32055827 2360.0606426 -798.8203125 2361.98828125 C-789.72569812 2368.98700719 -780.58157691 2375.82207177 -771.06640625 2382.23828125 C-768.13004532 2384.21922275 -765.22821544 2386.24267995 -762.33984375 2388.29296875 C-750.99322287 2396.34482701 -739.42904248 2403.95250534 -727.64013672 2411.34033203 C-725.13947313 2412.91232307 -722.64812218 2414.49785239 -720.16015625 2416.08984375 C-708.27468274 2423.68296198 -696.19202005 2430.91085651 -684 2438 C-682.71270996 2438.74999268 -682.71270996 2438.74999268 -681.39941406 2439.51513672 C-605.85715792 2483.424616 -525.72654521 2518.98333098 -443 2547 C-441.66998962 2547.45052734 -441.66998962 2547.45052734 -440.31311035 2547.91015625 C-351.96825989 2577.77018796 -261.0587507 2599.75137822 -47 2618 C-46.02853027 2618.01659668 -45.05706055 2618.03319336 -44.05615234 2618.05029297 C-38.36764916 2618.13981478 -32.68815161 2618.09703207 -27 2618 C-25.13456543 2617.97317139 -25.13456543 2617.97317139 -23.23144531 2617.94580078 C60.76775695 2616.67297347 144.43282933 2606.15263951 226 2586 C226.84626953 2585.79117188 227.69253906 2585.58234375 228.56445312 2585.3671875 C253.95703412 2579.08095214 278.99039711 2571.93607771 303.82531738 2563.71881104 C305.93025866 2563.02305203 308.03670335 2562.33204 310.14355469 2561.64208984 C374.56809614 2540.48732585 437.42306449 2512.15300679 496 2478 C496.92312988 2477.4642334 497.84625977 2476.9284668 498.79736328 2476.37646484 C529.76370865 2458.37550774 560.23958006 2438.91153875 588.97509766 2417.50390625 C591.2383898 2415.82294657 593.5148285 2414.16077645 595.79296875 2412.5 C610.28537547 2401.91686076 624.3007513 2390.82369318 638.19580078 2379.47216797 C639.78273046 2378.17728489 641.37348737 2376.88709522 642.96484375 2375.59765625 C653.13718627 2367.33729588 663.07744554 2358.80979374 672.78125 2350.00390625 C674.79308393 2348.18688018 676.82660434 2346.40055608 678.875 2344.625 C683.2131754 2340.84322385 687.45106503 2336.95433908 691.68066406 2333.05224609 C693.68707718 2331.20340784 695.7017574 2329.36598635 697.72631836 2327.53686523 C707.48618073 2318.66403614 716.79865182 2309.35331168 726.11328125 2300.01708984 C728.88688362 2297.23809327 731.66583681 2294.46452717 734.4453125 2291.69140625 C736.23209181 2289.90396663 738.01856115 2288.1162171 739.8046875 2286.328125 C740.62460175 2285.51023499 741.44451599 2284.69234497 742.28927612 2283.84967041 C746.50091673 2279.62097377 750.56807467 2275.32541416 754.45022583 2270.7913208 C757.20521398 2267.60694228 760.11251522 2264.56380447 763 2261.5 C767.76656537 2256.4139614 772.47422561 2251.30273137 777 2246 C777.8981565 2244.95548748 778.79662434 2243.91124263 779.6953125 2242.8671875 C782.8046567 2239.25142391 785.90403936 2235.62722593 789 2232 C789.49113281 2231.42491699 789.98226562 2230.84983398 790.48828125 2230.25732422 C796.45035388 2223.26876267 802.31546037 2216.21744919 808 2209 C808.41217773 2208.47825195 808.82435547 2207.95650391 809.24902344 2207.41894531 C820.17827065 2193.58374778 830.86185882 2179.59592618 841.26806641 2165.36279297 C842.84141329 2163.21635216 844.42497784 2161.07795052 846.01171875 2158.94140625 C857.2551203 2143.69981633 867.58127382 2127.8102888 878 2112 C878.61214355 2111.0713916 879.22428711 2110.1427832 879.85498047 2109.18603516 C882.94582633 2104.48393106 885.99557121 2099.75777673 889 2095 C889.48662109 2094.22962402 889.97324219 2093.45924805 890.47460938 2092.66552734 C921.45406357 2043.45437573 949.12253457 1991.83225708 973.14642334 1938.88104248 C973.7185914 1937.62014528 974.29155753 1936.35960994 974.86529541 1935.09942627 C1012.21263938 1853.05400612 1041.67780582 1767.0189157 1103 1421 C1103.07347656 1419.72318359 1103.14695312 1418.44636719 1103.22265625 1417.13085938 C1108.68173688 1317.99627818 1098.9088333 1217.28355312 1054 1029 C1053.76279236 1028.23594849 1053.52558472 1027.47189697 1053.28118896 1026.68469238 C1041.33707518 988.25683162 1027.36378749 950.76503161 1011 914 C1010.5054834 912.88786133 1010.0109668 911.77572266 1009.50146484 910.62988281 C1006.41041587 903.71691775 1003.23037449 896.84883493 1000 890 C999.48147461 888.89591797 998.96294922 887.79183594 998.42871094 886.65429688 C985.57560999 859.3708413 971.44481758 832.90863503 956 807 C954.98402884 805.2814546 953.96839414 803.56271023 952.953125 801.84375 C941.65032726 782.77876754 929.68090068 764.17635529 917 746 C916.25435791 744.92806396 916.25435791 744.92806396 915.49365234 743.83447266 C904.40878755 727.92120876 892.92647367 712.29281705 881 697 C880.10934315 695.85028509 879.21871916 694.70054472 878.328125 693.55078125 C872.91279783 686.58451359 867.33965717 679.78319025 861.609375 673.07421875 C859.23730965 670.29266912 856.92507288 667.46651339 854.625 664.625 C846.49035884 654.64882689 838.01767581 644.96053702 829.22143555 635.56298828 C826.61304204 632.77283005 824.06290859 629.94334929 821.5546875 627.0625 C810.27835278 614.12608072 798.11817288 602.01455748 786 589.875 C785.32042236 589.19283417 784.64084473 588.51066833 783.94067383 587.80783081 C774.60845911 578.39869973 774.60845911 578.39869973 764.77197266 569.52685547 C761.28926854 566.52591423 758.01151125 563.29920527 754.6875 560.125 C749.13591003 554.85792149 743.53116452 549.83140867 737.5390625 545.0703125 C734.76364014 542.8072758 732.1338161 540.42607849 729.5 538 C724.68955728 533.58252302 719.72029612 529.43060412 714.63720703 525.33251953 C712.77611932 523.81778396 710.93242794 522.28328215 709.08984375 520.74609375 C700.19723355 513.3386751 691.13538919 506.25222578 681.83300781 499.36865234 C679.067545 497.30376362 676.34876845 495.18212432 673.625 493.0625 C651.91311988 476.26829673 629.1328615 460.75636027 606 446 C605.21173828 445.4951709 604.42347656 444.9903418 603.61132812 444.47021484 C575.45645087 426.45410091 546.53290028 409.65196613 517 394 C515.97422852 393.45553223 514.94845703 392.91106445 513.89160156 392.35009766 C428.46247612 347.15780035 337.47311272 311.52904508 -304 256 C-304.77466614 256.14354919 -305.54933228 256.28709839 -306.34747314 256.43499756 C-377.02505892 269.56571028 -447.55172469 289.42744527 -514 317 C-515.03608398 317.42522949 -516.07216797 317.85045898 -517.13964844 318.28857422 C-555.51136008 334.06466362 -593.4458599 351.556978 -629.31689453 372.45117188 C-632.14348597 374.08282757 -634.98824461 375.6781077 -637.83984375 377.265625 C-638.82879639 377.81758545 -639.81774902 378.3695459 -640.83666992 378.93823242 C-642.66444967 379.95727362 -644.49380472 380.97349988 -646.32543945 381.9855957 C-661.72631543 390.62080242 -676.43036384 400.50187061 -691.10717773 410.29956055 C-693.56278666 411.93769123 -696.02246253 413.56958363 -698.48242188 415.20117188 C-713.25544641 425.02989127 -727.67575695 435.31717793 -741.75 446.125 C-742.62849609 446.79748779 -743.50699219 447.46997559 -744.41210938 448.1628418 C-746.94450467 450.10457676 -749.47323581 452.05094504 -752 454 C-753.02963867 454.79349854 -753.02963867 454.79349854 -754.08007812 455.60302734 C-761.5163848 461.34805094 -768.76706375 467.27373634 -775.91015625 473.37890625 C-778.77577694 475.82303334 -781.69405522 478.19695734 -784.625 480.5625 C-789.38807218 484.43812933 -793.93364249 488.51234289 -798.453125 492.66796875 C-800.58941749 494.62405252 -802.74780657 496.54187697 -804.9375 498.4375 C-809.78887119 502.66035347 -814.51705289 507.01634252 -819.24291992 511.37835693 C-820.38411425 512.43158717 -821.52584796 513.4842334 -822.66821289 514.53619385 C-831.97527615 523.11626965 -841.05515035 531.89635373 -849.99169922 540.86132812 C-852.023262 542.89832421 -854.06021836 544.92981951 -856.09765625 546.9609375 C-857.41959207 548.28353317 -858.74121817 549.60643849 -860.0625 550.9296875 C-860.65740234 551.52256561 -861.25230469 552.11544373 -861.86523438 552.72628784 C-865.5518835 556.43326394 -869.03750848 560.27003588 -872.45758057 564.22399902 C-874.14056272 566.16184931 -875.87377243 568.04041554 -877.6484375 569.89453125 C-878.2566333 570.53430908 -878.8648291 571.17408691 -879.49145508 571.83325195 C-880.1130249 572.48640381 -880.73459473 573.13955566 -881.375 573.8125 C-886.45735538 579.189015 -891.28394154 584.6387559 -895.89453125 590.42578125 C-898.17200846 593.21030348 -900.56312008 595.85413803 -903 598.5 C-907.41377112 603.3064072 -911.5636031 608.27110083 -915.65869141 613.34960938 C-917.20187037 615.248388 -918.76190797 617.13255739 -920.32421875 619.015625 C-926.66502042 626.66163127 -932.90804221 634.35325697 -938.9140625 642.265625 C-939.94660156 643.61914062 -939.94660156 643.61914062 -941 645 C-941.87785156 646.44632813 -941.87785156 646.44632813 -942.7734375 647.921875 C-943.87558594 648.95054687 -943.87558594 648.95054687 -945 650 C-951.67378278 649.70899614 -957.59131646 647.67088728 -963.86328125 645.4921875 C-964.9098288 645.13540421 -965.95637634 644.77862091 -967.03463745 644.411026 C-970.46322077 643.23987625 -973.88783788 642.05756193 -977.3125 640.875 C-979.73263359 640.04573548 -982.15296502 639.21704814 -984.57348633 638.38891602 C-999.29132181 633.34569281 -1013.98188536 628.22540959 -1028.66030884 623.06878662 C-1048.52822978 616.09469012 -1068.4896238 609.39796559 -1088.44408798 602.67676544 C-1109.96631003 595.42724934 -1131.47115007 588.13911583 -1152.890625 580.58984375 C-1153.6542334 580.32102386 -1154.4178418 580.05220398 -1155.20458984 579.77523804 C-1156.66120601 579.2618748 -1158.11728777 578.74699196 -1159.57275391 578.2303772 C-1163.38684498 576.88434115 -1167.21351083 575.6030464 -1171.0703125 574.38427734 C-1171.90506104 574.11745651 -1172.73980957 573.85063568 -1173.59985352 573.57572937 C-1175.20641728 573.06507757 -1176.81620618 572.56443232 -1178.42944336 572.07527161 C-1180.31722283 571.47301182 -1182.1644391 570.74642104 -1184 570 C-1184.33 569.01 -1184.66 568.02 -1185 567 C-1183.54635446 564.51898894 -1182.05319841 562.26066407 -1180.375 559.9375 C-1179.87718018 559.23214111 -1179.37936035 558.52678223 -1178.86645508 557.80004883 C-1177.25547166 555.52517527 -1175.62900366 553.2619962 -1174 551 C-1172.95427438 549.53656744 -1171.90870007 548.07302674 -1170.86328125 546.609375 C-1167.59941845 542.05541792 -1164.30339032 537.52533407 -1161 533 C-1160.41782715 532.20094238 -1159.8356543 531.40188477 -1159.23583984 530.57861328 C-1152.10796509 520.80530155 -1144.87198789 511.14450816 -1137.33544922 501.68261719 C-1135.4713088 499.33386842 -1133.62626349 496.97036094 -1131.77954102 494.60791016 C-1127.30916984 488.89348123 -1122.78074668 483.23345969 -1118.16796875 477.6328125 C-1116.72685627 475.88270474 -1115.29190597 474.12750388 -1113.86328125 472.3671875 C-1108.21154096 465.40651633 -1102.40140088 458.59368008 -1096.54833984 451.80273438 C-1095.02159309 450.02514087 -1093.50358292 448.24047985 -1091.98828125 446.453125 C-1086.54741231 440.04536535 -1081.01823787 433.74918269 -1075.27148438 427.61303711 C-1072.65463943 424.81579965 -1070.09595151 421.98025667 -1067.58203125 419.08984375 C-1064.13289314 415.13022755 -1060.59300067 411.26667851 -1057 407.4375 C-1056.360625 406.75494141 -1055.72125 406.07238281 -1055.0625 405.36914062 C-1049.84277351 399.82827861 -1044.48112192 394.44239389 -1039.06884766 389.09033203 C-1036.04457786 386.0885058 -1033.11266868 383.08286776 -1030.375 379.8125 C-1027.0347562 375.86340164 -1023.22591391 372.460266 -1019.40112305 368.99462891 C-1013.9988384 364.07120228 -1008.85121175 358.91166484 -1003.73266602 353.6953125 C-999.93953381 349.85220043 -996.03846003 346.21980234 -991.94848633 342.69458008 C-988.89477842 340.03879927 -985.95187335 337.26779867 -983 334.5 C-978.07487132 329.90801887 -973.11717826 325.37823555 -968 321 C-966.96605322 320.11208701 -965.93220867 319.22405495 -964.8984375 318.3359375 C-962.50504964 316.28098118 -960.10873322 314.22949804 -957.7109375 312.1796875 C-955.2917862 310.11029302 -952.88061267 308.03222693 -950.4765625 305.9453125 C-944.23150025 300.53479535 -937.90775703 295.274171 -931.37963867 290.20800781 C-927.63455646 287.29890456 -923.94836633 284.32958937 -920.28857422 281.31396484 C-911.52094443 274.09751443 -902.45247444 267.35742357 -893.27685547 260.67138672 C-890.49577336 258.62985893 -887.7446593 256.55087841 -884.99633789 254.46557617 C-858.75517079 234.57847529 -831.05219031 216.23075938 -803 199 C-801.96633301 198.36288086 -800.93266602 197.72576172 -799.86767578 197.06933594 C-784.10578385 187.36317347 -768.20512837 177.95228208 -752 169 C-751.09088867 168.49662109 -750.18177734 167.99324219 -749.24511719 167.47460938 C-731.43668107 157.63227398 -713.44975074 148.10801409 -695.20703125 139.09375 C-692.10619162 137.55937544 -689.02543757 135.98938704 -685.94921875 134.40625 C-668.63037818 125.54367839 -650.90433799 117.69192062 -633.08081055 109.91082764 C-630.05505558 108.586372 -627.03589544 107.2470623 -624.015625 105.91015625 C-529.38902291 64.34057833 -428.72364328 35.80274416 -172 0 C-171.11183594 -0.06165344 -170.22367188 -0.12330688 -169.30859375 -0.18682861 C-113.30492577 -4.03628407 -55.9975295 -3.81138998 0 0 Z " fill="#FDFDFD" transform="translate(2864,32)"/>
<path d="M0 0 C109.56 0 219.12 0 332 0 C334.40122668 4.80245336 336.60889581 9.27560109 338.56079102 14.21289062 C339.02956161 15.39338486 339.49833221 16.57387909 339.98130798 17.79014587 C340.48889003 19.07882784 340.99642101 20.36752991 341.50390625 21.65625 C342.051111 23.03789481 342.59865216 24.41940642 343.14649963 25.80079651 C344.32994656 28.78673587 345.51119178 31.77353321 346.69073486 34.76101685 C348.60313965 39.60442279 350.5206199 44.44580948 352.43896484 49.28686523 C354.49029483 54.46404436 356.54139043 59.64131528 358.59094238 64.81919861 C365.68674449 82.74470653 372.81198107 100.65847008 379.93997192 118.57119751 C382.14658532 124.11652568 384.35254707 129.66211292 386.55834961 135.20776367 C386.92647294 136.1332668 387.29459627 137.05876993 387.67387486 138.01231861 C388.41946532 139.88681999 389.16505458 141.76132186 389.91064262 143.6358242 C391.78019068 148.33602459 393.64986721 153.03617387 395.51953125 157.73632812 C402.52310757 175.34275879 409.5259745 192.94947162 416.52873993 210.55622482 C417.62602746 213.31508329 418.72332216 216.0739389 419.82061768 218.83279419 C430.72327733 246.24469556 441.62342729 273.65759403 452.52217102 301.07105255 C463.47108736 328.61067457 474.42208057 356.14946982 485.375 383.6875 C485.73764954 384.59928009 486.10029907 385.51106018 486.47393799 386.45046997 C489.77798505 394.75754981 493.08206249 403.06461756 496.38616943 411.37167358 C501.51017284 424.25424413 506.63404512 437.13686683 511.7578125 450.01953125 C512.11851711 450.92644903 512.47922173 451.83336681 512.85085678 452.76776695 C514.67207778 457.34685569 516.49329649 461.92594534 518.31451416 466.5050354 C521.59503779 474.75325721 524.87558178 483.00147092 528.15612411 491.24968529 C529.97908357 495.8331232 531.80204172 500.41656162 533.625 505 C534.35416666 506.83333334 535.08333333 508.66666667 535.8125 510.5 C571.90625 601.25 608 692 751.28126431 1052.25003624 C752.01038304 1054.08324887 752.73950202 1055.91646141 753.46862125 1057.74967384 C755.29227335 1062.33485307 757.11592109 1066.92003401 758.93955994 1071.50521851 C762.21202352 1079.73317825 765.48451629 1087.96112637 768.75717449 1096.18900871 C770.56860684 1100.74318465 772.38001331 1105.29737089 774.19140625 1109.8515625 C774.55052156 1110.7544463 774.90963688 1111.65733009 775.27963448 1112.58757401 C780.16983768 1124.88261196 785.05887227 1137.178114 789.94694519 1149.47399902 C791.49574354 1153.36996199 793.04466258 1157.26587693 794.59370422 1161.16174316 C794.97413344 1162.11852966 795.35456266 1163.07531616 795.74652004 1164.06109619 C796.51095848 1165.98366477 797.27540154 1167.90623151 798.03984928 1169.82879639 C800.2815204 1175.46678029 802.52237136 1181.10508933 804.76262379 1186.74363708 C811.10446207 1202.70451032 817.44656103 1218.66497009 823.87382317 1234.59167862 C824.62374246 1236.45034433 825.37274154 1238.30938123 826.12171936 1240.16842651 C828.29664827 1245.56675127 830.47712071 1250.96263238 832.67163086 1256.35302734 C833.39986783 1258.15710912 834.12783497 1259.96129986 834.85546875 1261.765625 C835.34475861 1262.95549515 835.34475861 1262.95549515 835.84393311 1264.16940308 C837.26454487 1267.71162349 838 1270.12892608 838 1274 C728.44 1274 618.88 1274 506 1274 C502.81645219 1266.99619481 499.73769995 1260.05257961 496.91015625 1252.91308594 C496.5335083 1251.96864876 496.15686035 1251.02421158 495.76879883 1250.05115509 C494.956393 1248.01331849 494.14515748 1245.97501502 493.33499146 1243.93628693 C491.57514728 1239.50807169 489.80931178 1235.08225314 488.04380798 1230.65629196 C487.11194336 1228.32014111 486.18035758 1225.983879 485.2490387 1223.64751053 C480.21063296 1211.0106556 475.13801617 1198.38761001 470.0625 1185.765625 C469.14409843 1183.48100814 468.22572284 1181.19638084 467.30737305 1178.91174316 C465.0029235 1173.17912364 462.69804007 1167.44667869 460.39300537 1161.71429443 C456.21977409 1151.33579756 452.04715846 1140.95705319 447.875 1130.578125 C447.42911152 1129.46894022 446.98322304 1128.35975544 446.52382278 1127.216959 C441.68049473 1115.16809987 436.84098866 1103.11778456 432.0234375 1091.05859375 C426.67206695 1077.66316695 421.29387323 1064.27855777 415.9140625 1050.89453125 C415.45947411 1049.76357655 415.00488571 1048.63262184 414.53652191 1047.46739578 C410.75644545 1038.06333739 406.97578561 1028.65951356 403.19500732 1019.2557373 C399.91352497 1011.09380289 396.63230473 1002.93176319 393.3515625 994.76953125 C392.89368977 993.63038584 392.43581703 992.49124043 391.96406937 991.31757545 C386.36135388 977.37743153 380.76812664 963.43358158 375.19373322 949.48209 C369.69618591 935.72449554 364.17374745 921.97693368 358.6484375 908.23046875 C358.19170277 907.0941482 357.73496803 905.95782764 357.26439285 904.78707314 C353.96833262 896.58705297 350.67170518 888.38726089 347.375 880.1875 C343.61165465 870.82695335 339.84853777 861.46631492 336.0859375 852.10546875 C335.63108349 850.97387014 335.17622948 849.84227154 334.70759201 848.67638206 C329.34619157 835.33729866 323.99293909 821.9950751 318.65960693 808.64474487 C313.76056377 796.38819362 308.83684331 784.14156384 303.9140625 771.89453125 C303.45944012 770.76349157 303.00481773 769.6324519 302.53641891 768.46713829 C298.7563768 759.06316572 294.97575113 749.65942779 291.19500732 740.2557373 C287.91352497 732.09380289 284.63230508 723.93176305 281.3515625 715.76953125 C280.89373131 714.63048969 280.43590012 713.49144814 279.96419525 712.31789017 C274.62894409 699.04323243 269.30047144 685.76593338 263.9921875 672.48046875 C258.25243409 658.11513174 252.48821027 643.75968024 246.71875 629.40625 C246.26450024 628.27614187 245.81025047 627.14603374 245.34223557 625.98167992 C242.06189255 617.82095825 238.78100249 609.66045655 235.5 601.5 C231.76005257 592.19806301 228.02032725 582.89603682 224.28125 573.59375 C223.82636578 572.46207586 223.37148155 571.33040173 222.90281296 570.16443443 C217.32281605 556.28128715 211.75247237 542.39436906 206.20084 528.49985695 C200.70092119 514.73634114 195.17612841 500.98285123 189.6484375 487.23046875 C189.1917141 486.09417652 188.73499069 484.95788429 188.26442719 483.78715897 C184.9683555 475.5871102 181.67171668 467.38728948 178.375 459.1875 C174.61165465 449.82695335 170.84853777 440.46631492 167.0859375 431.10546875 C166.63108349 429.97387014 166.17622948 428.84227154 165.70759201 427.67638206 C160.34619157 414.33729866 154.99293909 400.9950751 149.65960693 387.64474487 C144.76056377 375.38819362 139.83684331 363.14156384 134.9140625 350.89453125 C134.45944012 349.76349157 134.00481773 348.6324519 133.53641891 347.46713829 C129.7563768 338.06316572 125.97575113 328.65942779 122.19500732 319.2557373 C118.91352497 311.09380289 115.63230473 302.93176319 112.3515625 294.76953125 C111.89368977 293.63038584 111.43581703 292.49124043 110.96406937 291.31757545 C105.36135388 277.37743153 99.76812664 263.43358158 94.19373322 249.48209 C88.69618591 235.72449554 83.17374745 221.97693368 77.6484375 208.23046875 C77.19170277 207.0941482 76.73496803 205.95782764 76.26439285 204.78707314 C72.96833262 196.58705297 69.67170518 188.38726089 66.375 180.1875 C63.07055109 171.96836376 59.76629856 163.74914864 56.46244812 155.5297718 C55.54563703 153.24904911 54.62873656 150.96836234 53.71174622 148.68771172 C45.20556744 127.53183056 45.20556744 127.53183056 41.59960938 118.47290039 C36.75083702 106.29495592 31.83655142 94.14911283 26.82907104 82.03572083 C24.24239998 75.77667867 21.67314735 69.51052891 19.10795403 63.24265766 C17.23197761 58.66204411 15.34606222 54.08598268 13.43994141 49.51782227 C11.55506662 44.9991177 9.69642015 40.47040098 7.85474396 35.93392754 C7.1607 34.2371333 6.457629 32.5439976 5.74468231 30.85505867 C4.75110886 28.49748478 3.7919275 26.12834 2.83886719 23.75415039 C2.54914536 23.08845032 2.25942352 22.42275024 1.96092224 21.73687744 C-1.02172206 14.09221801 0 9.15344337 0 0 Z " fill="#FDFDFD" transform="translate(0,763)"/>
<path d="M0 0 C109.56 0 219.12 0 332 0 C330.87502115 6.74987308 330.87502115 6.74987308 329.53665161 10.05691528 C329.0852448 11.18525268 329.0852448 11.18525268 328.62471867 12.33638477 C328.29368358 13.14592956 327.96264849 13.95547434 327.62158203 14.78955078 C327.09446578 16.09960728 327.09446578 16.09960728 326.55670071 17.43612957 C325.37939459 20.3581751 324.19352517 23.27666919 323.0078125 26.1953125 C322.1626547 28.28888081 321.31810068 30.38269294 320.47410583 32.47673035 C318.65448078 36.98855495 316.83131885 41.49892741 315.00540161 46.00820923 C310.59245733 56.90758713 306.19859614 67.81466481 301.80340004 78.72120857 C300.78616997 81.24535622 299.76863698 83.76938143 298.75084496 86.29330254 C288.06524953 112.79201601 277.48170935 139.33097642 266.92641449 165.88185883 C263.3076755 174.98403867 259.68715283 184.08550942 256.06694031 193.18710327 C255.19538633 195.3783296 254.32387513 197.56957294 253.45240784 199.76083374 C245.72553558 219.18921122 237.96801517 238.60516244 230.19309235 258.01435089 C222.51981096 277.17051001 214.87191442 296.33661211 207.24609375 315.51171875 C206.36842231 317.71847691 205.4907469 319.92523348 204.61306763 322.13198853 C203.95197589 323.79419654 203.95197589 323.79419654 203.27752876 325.48998451 C185.98486267 368.96950515 168.63048663 412.42297316 151.15928268 455.83108139 C137.19627199 490.52380997 123.31515401 525.24813572 109.5 560 C94.79950322 596.97893405 80.01461533 633.92278599 65.15625 670.83856201 C51.19417386 705.52876581 37.31415977 740.2506367 23.5 775 C8.79950322 811.97893405 -5.98538467 848.92278599 -20.84375 885.83856201 C-34.80582614 920.52876581 -48.68584023 955.2506367 -62.5 990 C-77.19475058 1026.96447954 -91.97360573 1063.89399472 -106.82634354 1100.79526901 C-126.03703799 1148.52538177 -145.08579461 1196.31896755 -164.08848572 1244.13221741 C-164.46012596 1245.06725349 -164.8317662 1246.00228958 -165.21466827 1246.9656601 C-165.89370725 1248.67419614 -166.57265225 1250.38276955 -167.25147247 1252.09139252 C-169.49279337 1257.73092326 -171.74616562 1263.36541406 -174 1269 C-338.34 1268.505 -338.34 1268.505 -506 1268 C-504.87502115 1261.25012692 -504.87502115 1261.25012692 -503.53665161 1257.94308472 C-503.23571846 1257.19087143 -502.93478531 1256.43865814 -502.62473297 1255.66365051 C-502.29369316 1254.85409409 -501.96265335 1254.04453766 -501.62158203 1253.21044922 C-501.09440205 1251.90023552 -501.09440205 1251.90023552 -500.55657196 1250.56355286 C-499.37930798 1247.6416135 -498.19348263 1244.7232248 -497.0078125 1241.8046875 C-496.16334117 1239.71281299 -495.31947374 1237.62069461 -494.47616577 1235.52835083 C-492.65722985 1231.01821894 -490.83475295 1226.50954088 -489.00952148 1222.00195312 C-484.57745461 1211.05535572 -480.16442303 1200.10107729 -475.75009918 1189.14731598 C-474.72926431 1186.61427624 -473.70812604 1184.08135912 -472.68672943 1181.54854584 C-462.32041083 1155.84198771 -452.05937272 1130.09402407 -441.82500458 1104.33466339 C-426.68903863 1066.2416995 -411.46121602 1028.18679848 -396.15625 990.16143799 C-382.19417386 955.47123419 -368.31415977 920.7493633 -354.5 886 C-339.79950322 849.02106595 -325.01461533 812.07721401 -310.15625 775.16143799 C-296.19417386 740.47123419 -282.31415977 705.7493633 -268.5 671 C-253.79950322 634.02106595 -239.01461533 597.07721401 -224.15625 560.16143799 C-210.19417386 525.47123419 -196.31415977 490.7493633 -182.5 456 C-167.79950322 419.02106595 -153.01461533 382.07721401 -138.15625 345.16143799 C-124.19417338 310.47123299 -110.31439561 275.74927028 -96.5 241 C-80.39534517 200.49069184 -64.19492329 160.02084541 -47.9140625 119.58203125 C-31.8798767 79.74610116 -15.94837005 39.87092513 0 0 Z " fill="#FDFDFD" transform="translate(2855,763)"/>
<path d="M0 0 C0.6075937 0.00509612 1.21518739 0.01019224 1.84119302 0.01544279 C96.15830611 0.80205498 190.47264009 1.10042961 284.79296875 1.09765625 C286.11293171 1.09762838 287.43289467 1.09760051 288.79285651 1.09757179 C321.2591669 1.09676042 353.72547288 1.08723225 386.19178022 1.07373433 C407.18343593 1.06500751 428.17509089 1.05884062 449.16674805 1.05493164 C450.21927449 1.05473435 450.21927449 1.05473435 451.29306409 1.05453308 C458.34613163 1.05321341 465.39919917 1.05193777 472.45226672 1.05069422 C486.79242205 1.04816485 501.13257731 1.04534364 515.47273254 1.04234314 C516.78677792 1.04206841 518.1008233 1.04179369 519.45468823 1.04151063 C561.96979361 1.03249505 604.48489706 1.01677745 647 1 C646.39542816 4.13587364 645.72017339 7.01331075 644.53665161 9.98135376 C644.23571846 10.74205421 643.93478531 11.50275467 643.62473297 12.28650665 C643.29369316 13.11057762 642.96265335 13.93464859 642.62158203 14.78369141 C642.27012871 15.66835838 641.91867538 16.55302536 641.55657196 17.46450043 C640.377781 20.42851699 639.19282737 23.39002931 638.0078125 26.3515625 C637.16359333 28.47015182 636.31971938 30.58887874 635.47616577 32.70773315 C633.17958645 38.47282299 630.87741705 44.23566586 628.5741272 49.99807739 C626.62805718 54.86876463 624.68523467 59.74074454 622.74233627 64.6126976 C608.1707356 101.15131 593.51071574 137.65431571 578.82504272 174.1472168 C563.72614972 211.66801724 548.72595465 249.22732223 533.79296875 286.81445312 C514.27870786 335.90998163 494.6213933 384.94651675 475 434 C375.34 434 275.68 434 173 434 C154.66585218 389.3105147 154.66585218 389.3105147 147.77280807 371.91458702 C146.45086171 368.57856901 145.12592318 365.24375036 143.80044556 361.90913391 C140.98956573 354.83620693 138.1820036 347.76196605 135.375 340.6875 C131.65624804 331.31537132 127.93586448 321.94389514 124.2109375 312.57421875 C123.75908333 311.43752621 123.30722916 310.30083366 122.84168243 309.12969589 C117.38329703 295.40595679 111.86217298 281.71278797 106.19939804 268.07221031 C100.57653063 254.51630751 95.14012402 240.88755808 89.71875 227.25 C89.2645229 226.10747583 88.81029579 224.96495167 88.34230423 223.78780556 C84.58415466 214.33242933 80.83123448 204.87497913 77.07843018 195.41748047 C73.81506713 187.1940469 70.5498392 178.97135783 67.28125 170.75 C66.82611652 169.60519228 66.37098305 168.46038456 65.90205765 167.2808857 C60.69672526 154.19509968 55.45223422 141.12881432 50.0546875 128.12109375 C41.0091238 106.32142927 32.30612195 84.38321358 23.57226562 62.45727539 C21.33462114 56.84049071 19.09202091 51.22571021 16.84696448 45.61188608 C14.65974552 40.14182574 12.47816175 34.66952961 10.29868698 29.19637871 C9.3793434 26.88994509 8.45829823 24.58418895 7.53551102 22.27913094 C6.26052678 19.093022 4.99199389 15.9044198 3.72509766 12.71508789 C3.34501053 11.76940948 2.9649234 10.82373108 2.57331848 9.84939575 C2.2317421 8.98567856 1.89016571 8.12196136 1.53823853 7.23207092 C1.2393252 6.482567 0.94041187 5.73306307 0.63244057 4.9608469 C0 3 0 3 0 0 Z " fill="#FDFDFD" transform="translate(1270,3938)"/>
</svg>
